<svg width="800" height="600" viewBox="0 0 800 600" xmlns="http://www.w3.org/2000/svg">
  <!-- Background -->
  <rect width="800" height="600" fill="#0a192f" rx="20"/>
  
  <!-- Title -->
  <text x="400" y="50" text-anchor="middle" font-family="Segoe UI, Arial" font-size="32" fill="#ffffff" font-weight="bold">UF SYSTEM DRAWING</text>
  <text x="400" y="80" text-anchor="middle" font-family="Segoe UI, Arial" font-size="16" fill="#64ffda">Raj Enterprices - Professional Process Control</text>

  <!-- Symbols Definitions -->
  <defs>
    <!-- Valve symbol: two triangles meeting at a point -->
    <g id="valve-sym">
      <polygon points="0,0 24,12 0,24 24,0" fill="#f06292" stroke="#ffffff" stroke-width="1.5"/>
      <rect x="10" y="-4" width="4" height="6" fill="#ffffff" rx="1"/>
    </g>
    <!-- Pump symbol: circle with an X -->
    <g id="pump-sym">
      <circle cx="0" cy="0" r="24" fill="#4fc3f7" stroke="#ffffff" stroke-width="2"/>
      <path d="M -12 -12 L 12 12 M -12 12 L 12 -12" stroke="#0a192f" stroke-width="3"/>
    </g>
    <!-- Tank symbol: cylinder -->
    <g id="tank-sym">
      <rect x="-60" y="0" width="120" height="80" fill="#112240" stroke="#8892b0" stroke-width="3" rx="10"/>
      <ellipse cx="0" cy="0" rx="60" ry="15" fill="#1e3a8a" stroke="#8892b0" stroke-width="3"/>
    </g>
  </defs>

  <!-- Main UF Vessel -->
  <g transform="translate(400, 180)">
    <rect x="-50" y="0" width="100" height="250" rx="20" fill="#112240" stroke="#64ffda" stroke-width="4"/>
    <text x="0" y="130" text-anchor="middle" font-family="Arial" font-size="28" fill="#64ffda" font-weight="bold">UF</text>
    <!-- Vessel Caps -->
    <ellipse cx="0" cy="0" rx="50" ry="18" fill="#1e3a8a" stroke="#64ffda" stroke-width="3"/>
    <ellipse cx="0" cy="250" rx="50" ry="18" fill="#1e3a8a" stroke="#64ffda" stroke-width="3"/>
  </g>

  <!-- DMF STORAGE (Bottom Left) -->
  <g transform="translate(150, 480)">
    <use href="#tank-sym"/>
    <text y="50" text-anchor="middle" font-family="Arial" font-size="14" fill="#ffffff" font-weight="bold">DMF STORAGE</text>
  </g>

  <!-- UF STORAGE TANK (Middle Right) -->
  <g transform="translate(680, 320)">
    <use href="#tank-sym" transform="scale(1.2)"/>
    <text y="60" text-anchor="middle" font-family="Arial" font-size="14" fill="#ffffff" font-weight="bold">UF STORAGE TANK</text>
  </g>

  <!-- DRAIN (Bottom Right) -->
  <g transform="translate(640, 520)">
    <rect x="-40" y="0" width="80" height="40" rx="10" fill="#112240" stroke="#495670" stroke-width="3"/>
    <text y="25" text-anchor="middle" font-family="Arial" font-size="14" fill="#8892b0" font-weight="bold">DRAIN</text>
  </g>

  <!-- === PIPING & COMPONENTS === -->

  <!-- 1. PP1 Path -->
  <path d="M 150 480 L 150 450 L 80 450" stroke="#64ffda" stroke-width="5" fill="none"/>
  <use href="#pump-sym" x="80" y="450"/>
  <text x="80" y="410" text-anchor="middle" font-family="Arial" font-size="14" fill="#4fc3f7" font-weight="bold">PP1</text>
  
  <!-- Line from PP1 to split -->
  <path d="M 80 450 L 250 450" stroke="#64ffda" stroke-width="5" fill="none"/>
  
  <!-- Path to V1 (Bottom) -->
  <path d="M 250 450 L 400 450 L 400 430" stroke="#64ffda" stroke-width="5" fill="none"/>
  <use href="#valve-sym" x="300" y="438"/>
  <text x="312" y="430" text-anchor="middle" font-family="Arial" font-size="16" fill="#ffffff" font-weight="bold">V1</text>

  <!-- Path to V2 (Up to Horizontal) -->
  <path d="M 250 450 L 250 220 L 580 220" stroke="#64ffda" stroke-width="5" fill="none"/>
  <use href="#valve-sym" x="238" y="320" transform="rotate(-90, 250, 332)"/>
  <text x="230" y="332" text-anchor="end" font-family="Arial" font-size="16" fill="#ffffff" font-weight="bold">V2</text>

  <!-- 2. Bottom Exit Path -->
  <path d="M 400 430 L 400 450 L 640 450 L 640 520" stroke="#64ffda" stroke-width="5" fill="none"/>
  <use href="#valve-sym" x="520" y="438"/>
  <text x="532" y="430" text-anchor="middle" font-family="Arial" font-size="16" fill="#ffffff" font-weight="bold">V3</text>

  <!-- Path to V4 (Up from Bottom Exit) -->
  <path d="M 580 450 L 580 220" stroke="#64ffda" stroke-width="5" fill="none"/>
  <use href="#valve-sym" x="568" y="380" transform="rotate(-90, 580, 392)"/>
  <text x="595" y="392" text-anchor="start" font-family="Arial" font-size="16" fill="#ffffff" font-weight="bold">V4</text>

  <!-- Junctions on horizontal manifolds -->
  <circle cx="580" cy="220" r="6" fill="#64ffda"/>
  <circle cx="250" cy="220" r="6" fill="#64ffda"/>

  <!-- 3. Top Horizontal Manifold -->
  <path d="M 400 162 L 400 130 L 700 130 L 700 240" stroke="#64ffda" stroke-width="8" fill="none"/>
  <use href="#valve-sym" x="650" y="118"/>
  <text x="662" y="110" text-anchor="middle" font-family="Arial" font-size="16" fill="#ffffff" font-weight="bold">V5</text>

  <!-- Connection from V2/V4 line to Top Manifold -->
  <path d="M 580 220 L 580 130" stroke="#64ffda" stroke-width="5" fill="none"/>
  <circle cx="580" cy="130" r="6" fill="#64ffda"/>

  <!-- 4. PP2 Backwash Path -->
  <path d="M 680 320 L 620 320 L 620 130" stroke="#4fc3f7" stroke-width="4" fill="none" stroke-dasharray="8,4"/>
  <use href="#pump-sym" x="620" y="280" transform="rotate(-90, 620, 280)"/>
  <text x="655" y="285" text-anchor="start" font-family="Arial" font-size="14" fill="#4fc3f7" font-weight="bold">PP2</text>
  
  <!-- Backwash Valve (Unlabeled in drawing but visible) -->
  <rect x="610" y="180" width="20" height="24" fill="#495670" stroke="#ffffff" stroke-width="1"/>
  <circle cx="620" cy="130" r="5" fill="#4fc3f7"/>

</svg>
