<svg width="650" height="420" viewBox="0 0 650 420" xmlns="http://www.w3.org/2000/svg">
    <!-- Background -->
    <rect width="650" height="420" fill="#0a192f" rx="15"/>
    
    <!-- Title Area Area -->
    <text x="325" y="35" text-anchor="middle" font-family="Segoe UI, Arial" font-size="22" fill="#ffffff" font-weight="bold">UF SYSTEM PROCESS SCHEMATIC</text>
    <text x="325" y="55" text-anchor="middle" font-family="Segoe UI, Arial" font-size="14" fill="#64ffda">Raj Enterprices - Industrial Grade Control</text>

    <!-- Project Symbols Definitions -->
    <defs>
        <g id="v-node">
            <polygon points="0,0 16,10 0,10 16,0" fill="#f06292" stroke="#ffffff" stroke-width="1"/>
            <rect x="7" y="0" width="2" height="4" fill="#ffffff"/>
        </g>
        <g id="p-node">
            <circle cx="0" cy="0" r="15" fill="#4fc3f7" stroke="#ffffff" stroke-width="1.5"/>
            <path d="M -8 -8 L 8 8 M -8 8 L 8 -8" stroke="#0a192f" stroke-width="2"/>
        </g>
        <g id="tank-node">
            <rect x="-35" y="0" width="70" height="50" fill="#112240" stroke="#8892b0" stroke-width="2" rx="5"/>
            <ellipse cx="0" cy="0" rx="35" ry="10" fill="#1e3a8a" stroke="#8892b0" stroke-width="2"/>
        </g>
    </defs>

    <!-- UF Vessel -->
    <g transform="translate(325, 120)">
        <rect x="-40" y="0" width="80" height="200" rx="15" fill="#112240" stroke="#64ffda" stroke-width="3"/>
        <text y="105" text-anchor="middle" font-family="Arial" font-size="20" fill="#64ffda" font-weight="bold">UF</text>
        <ellipse cx="0" cy="0" rx="40" ry="12" fill="#1e3a8a" stroke="#64ffda" stroke-width="2"/>
        <ellipse cx="0" cy="200" rx="40" ry="12" fill="#1e3a8a" stroke="#64ffda" stroke-width="2"/>
    </g>

    <!-- Tanks -->
    <g transform="translate(80, 310)">
        <use href="#tank-node"/>
        <text y="35" text-anchor="middle" font-family="Arial" font-size="10" fill="#ffffff" font-weight="bold">DMF STORAGE</text>
    </g>

    <g transform="translate(560, 240)">
        <use href="#tank-node" transform="scale(1.2)"/>
        <text y="40" text-anchor="middle" font-family="Arial" font-size="10" fill="#ffffff" font-weight="bold">UF STORAGE</text>
    </g>

    <!-- DRAIN -->
    <g transform="translate(580, 350)">
        <rect x="-25" y="0" width="50" height="30" rx="5" fill="#112240" stroke="#495670" stroke-width="2"/>
        <text y="20" text-anchor="middle" font-family="Arial" font-size="10" fill="#8892b0">DRAIN</text>
    </g>

    <!-- Piping -->
    
    <!-- Feed Path (PP1) -->
    <path d="M 115 330 L 140 330" stroke="#64ffda" stroke-width="3" fill="none"/>
    <use href="#p-node" x="140" y="330"/>
    <text x="140" y="360" text-anchor="middle" font-family="Arial" font-size="10" fill="#64ffda" font-weight="bold">PP1</text>
    
    <path d="M 155 330 L 285 330" stroke="#64ffda" stroke-width="3" fill="none"/>
    <use href="#v-node" x="220" y="325"/>
    <text x="228" y="320" text-anchor="middle" font-family="Arial" font-size="11" fill="#ffffff" font-weight="bold">V1</text>

    <!-- Split to Top (V2) -->
    <path d="M 180 330 L 180 140 L 285 140" stroke="#64ffda" stroke-width="3" fill="none"/>
    <use href="#v-node" x="172" y="240" transform="rotate(-90, 180, 245)"/>
    <text x="165" y="245" text-anchor="end" font-family="Arial" font-size="11" fill="#ffffff" font-weight="bold">V2</text>

    <!-- Bottom Exit -->
    <path d="M 325 320 L 325 365 L 555 365" stroke="#64ffda" stroke-width="3" fill="none"/>
    <use href="#v-node" x="400" y="360"/>
    <text x="408" y="355" text-anchor="middle" font-family="Arial" font-size="11" fill="#ffffff" font-weight="bold">V3</text>

    <!-- V4 Connection to Top -->
    <path d="M 450 365 L 450 80" stroke="#64ffda" stroke-width="3" fill="none"/>
    <use href="#v-node" x="442" y="300" transform="rotate(-90, 450, 305)"/>
    <text x="465" y="305" text-anchor="start" font-family="Arial" font-size="11" fill="#ffffff" font-weight="bold">V4</text>

    <!-- Top Manifold -->
    <path d="M 325 100 L 325 80 L 560 80 L 560 220" stroke="#64ffda" stroke-width="4" fill="none"/>
    <use href="#v-node" x="500" y="75"/>
    <text x="508" y="70" text-anchor="middle" font-family="Arial" font-size="11" fill="#ffffff" font-weight="bold">V5</text>

    <!-- PP2 Connection (Backwash) -->
    <path d="M 524 260 L 585 260 L 585 80 L 450 80" stroke="#4fc3f7" stroke-width="2" fill="none" stroke-dasharray="5,2"/>
    <use href="#p-node" x="585" y="150" transform="rotate(-90, 585, 150)"/>
    <text x="610" y="155" text-anchor="start" font-family="Arial" font-size="10" fill="#4fc3f7" font-weight="bold">PP2</text>
    <circle cx="450" cy="80" r="3" fill="#4fc3f7"/>

</svg>
