<svg width="900" height="560" viewBox="0 0 900 560" xmlns="http://www.w3.org/2000/svg" font-family="Segoe UI,Arial,sans-serif">
<defs>
  <!-- Pipe gradients -->
  <linearGradient id="pH" x1="0" y1="0" x2="0" y2="1">
    <stop offset="0%" stop-color="#030e1c"/><stop offset="30%" stop-color="#00d4ff" stop-opacity=".65"/><stop offset="65%" stop-color="#00d4ff" stop-opacity=".52"/><stop offset="100%" stop-color="#030e1c"/>
  </linearGradient>
  <linearGradient id="pV" x1="0" y1="0" x2="1" y2="0">
    <stop offset="0%" stop-color="#030e1c"/><stop offset="30%" stop-color="#00d4ff" stop-opacity=".65"/><stop offset="65%" stop-color="#00d4ff" stop-opacity=".52"/><stop offset="100%" stop-color="#030e1c"/>
  </linearGradient>
  <!-- Components -->
  <linearGradient id="uf" x1="0" y1="0" x2="1" y2="0">
    <stop offset="0%" stop-color="#07182e"/><stop offset="22%" stop-color="#1a4272"/><stop offset="52%" stop-color="#2270b8"/><stop offset="78%" stop-color="#1a4272"/><stop offset="100%" stop-color="#07182e"/>
  </linearGradient>
  <linearGradient id="tk" x1="0" y1="0" x2="1" y2="0">
    <stop offset="0%" stop-color="#05131e"/><stop offset="38%" stop-color="#123050"/><stop offset="65%" stop-color="#164468"/><stop offset="100%" stop-color="#05131e"/>
  </linearGradient>
  <linearGradient id="fl" x1="0" y1="0" x2="0" y2="1">
    <stop offset="0%" stop-color="#081c38"/><stop offset="50%" stop-color="#1c4472"/><stop offset="100%" stop-color="#081c38"/>
  </linearGradient>
  <linearGradient id="pm" x1="0" y1="0" x2="0" y2="1">
    <stop offset="0%" stop-color="#0a182e"/><stop offset="50%" stop-color="#162a4c"/><stop offset="100%" stop-color="#071220"/>
  </linearGradient>
  <linearGradient id="vl" x1="0" y1="0" x2="1" y2="1">
    <stop offset="0%" stop-color="#152858"/><stop offset="100%" stop-color="#0a1838"/>
  </linearGradient>
  <!-- Filters -->
  <filter id="gl" x="-50%" y="-50%" width="200%" height="200%">
    <feGaussianBlur stdDeviation="3" result="b"/><feMerge><feMergeNode in="b"/><feMergeNode in="SourceGraphic"/></feMerge>
  </filter>
  <filter id="sh" x="-15%" y="-15%" width="130%" height="140%">
    <feDropShadow dx="0" dy="4" stdDeviation="5" flood-color="#000" flood-opacity=".7"/>
  </filter>
</defs>

<!-- Background -->
<rect width="900" height="560" fill="#0b1020" rx="14"/>
<rect x="3" y="3" width="894" height="554" fill="none" stroke="#101a2e" stroke-width="1.5" rx="12"/>

<!-- Header -->
<g transform="translate(28,18)">
  <path d="M19,1C19,1 1,15 1,27C1,37 9,45 19,45C29,45 37,37 37,27C37,15 19,1 19,1Z" fill="none" stroke="#00d4ff" stroke-width="2.5" opacity=".9"/>
  <path d="M7,31Q19,22 31,31" fill="none" stroke="#00d4ff" stroke-width="2" opacity=".6"/>
  <circle cx="19" cy="17" r="2.8" fill="#00d4ff" opacity=".85"/>
  <text x="50" y="26" font-size="21" font-weight="700" fill="#d2e6f6" letter-spacing=".4">Raj Enterprices</text>
  <text x="50" y="43" font-size="11" fill="#00d4ff" letter-spacing="2.4">ULTRAFILTRATION SYSTEM</text>
</g>
<line x1="28" y1="72" x2="872" y2="72" stroke="#101a2e" stroke-width="1"/>

<!-- PIPES -->
<g id="pipes">
  <!-- DMF Suction -->
  <rect id="p_dmf_suction_v" x="88" y="405" width="13" height="60" fill="url(#pV)" rx="3"/>
  <rect id="p_dmf_suction_h" x="88" y="465" width="20" height="13" fill="url(#pH)"/>

  <!-- Bottom Feed Line -->
  <rect id="p_feed_line" x="105" y="400" width="317" height="13" fill="url(#pH)" rx="3"/>
  
  <!-- Left Vertical Bypass -->
  <rect id="p_bypass_v" x="220" y="195" width="13" height="205" fill="url(#pV)" rx="3"/>
  <rect id="p_bypass_h" x="220" y="195" width="165" height="13" fill="url(#pH)" rx="3"/>

  <!-- Top Outlet Header -->
  <rect id="p_header_v" x="424" y="140" width="13" height="30" fill="url(#pV)"/>
  <rect id="p_header_h" x="424" y="140" width="426" height="13" fill="url(#pH)" rx="3"/> 
  <rect id="p_pp2_suction" x="780" y="140" width="13" height="160" fill="url(#pV)" rx="3"/> <!-- Vertical Suction to PP2 -->
  <rect id="p_bypass_drop" x="845" y="140" width="13" height="188" fill="url(#pV)" rx="3"/> <!-- Final bypass drop -->

  <!-- Bottom Permeate Line (Ends at Drain) -->
  <rect id="p_permeate" x="422" y="400" width="330" height="13" fill="url(#pH)" rx="3"/>
  
  <!-- Drain (at x=740) -->
  <rect id="p_drain" x="740" y="413" width="13" height="65" fill="url(#pV)" rx="3"/>

  <!-- PP2 discharge to Tank (Connect the flow) -->
  <rect id="p_pp2_disch_h" x="792" y="301" width="35" height="13" fill="url(#pH)" rx="3"/>
  <rect id="p_pp2_disch_v" x="821" y="301" width="13" height="35" fill="url(#pV)" rx="3"/>
  
  <!-- Right Vertical (V4 column) -->
  <rect id="p_v4_col" x="680" y="195" width="13" height="205" fill="url(#pV)" rx="3"/>
  <rect id="p_v4_h" x="480" y="195" width="200" height="13" fill="url(#pH)" rx="3"/>

  <!-- Corner Elbows -->
  <rect x="220" y="195" width="13" height="13" fill="#0d2a4a"/>
  <rect x="845" y="140" width="13" height="13" fill="#0d2a4a"/>
  <rect x="680" y="195" width="13" height="13" fill="#0d2a4a"/>
</g>

<!-- UF VESSEL -->
<g transform="translate(382,170)" filter="url(#sh)">
  <rect x="-8" y="14" width="108" height="9" fill="url(#fl)" stroke="#1c4270" stroke-width="1" rx="1"/>
  <ellipse cx="46" cy="16" rx="46" ry="13" fill="#1a4272" stroke="#1e4a7e" stroke-width="1.5"/>
  <rect x="5" y="15" width="82" height="215" fill="url(#uf)" stroke="#1a4272" stroke-width="2" rx="5"/>
  <rect x="-18" y="25" width="23" height="13" fill="url(#pV)" stroke="#1a4272" stroke-width="1" rx="1"/>
  <rect x="87" y="25" width="23" height="13" fill="url(#pV)" stroke="#1a4272" stroke-width="1" rx="1"/>
  <ellipse cx="46" cy="230" rx="46" ry="13" fill="#060f20" stroke="#1a4272" stroke-width="1.5"/>
  <rect x="1" y="226" width="90" height="16" rx="3" fill="#0b2040" stroke="#1a4272" stroke-width="1.5"/>
  <rect x="-8" y="239" width="108" height="9" fill="url(#fl)" stroke="#1c4270" stroke-width="1" rx="1"/>
  <rect x="39" y="230" width="14" height="20" fill="url(#pV)" stroke="#1a4272" stroke-width="1" rx="2"/>
  <text x="46" y="125" text-anchor="middle" font-size="26" font-weight="700" fill="#00d4ff" letter-spacing="3" filter="url(#gl)">UF</text>
</g>

<!-- TANKS -->
<g transform="translate(50,450)" filter="url(#sh)">
  <rect x="0" y="16" width="120" height="76" fill="url(#tk)" stroke="#1a4272" stroke-width="2" rx="5"/>
  <rect id="dmf_level" x="2" y="50" width="116" height="40" fill="#00d4ff" opacity="0.3" rx="3"/>
  <ellipse cx="60" cy="16" rx="60" ry="17" fill="#164465" stroke="#1a4272" stroke-width="2"/>
  <ellipse cx="60" cy="92" rx="60" ry="17" fill="#050e1c" stroke="#1a4272" stroke-width="1.5"/>
  <text x="60" y="54" text-anchor="middle" font-size="14" font-weight="700" fill="#cce0f4">DMF STORAGE</text>
</g>
<g transform="translate(812,328)" filter="url(#sh)">
  <rect x="0" y="14" width="84" height="84" fill="url(#tk)" stroke="#1a4272" stroke-width="2" rx="5"/>
  <rect id="uf_level" x="2" y="40" width="80" height="56" fill="#00d4ff" opacity="0.3" rx="3"/>
  <ellipse cx="42" cy="14" rx="42" ry="14" fill="#164465" stroke="#1a4272" stroke-width="2"/>
  <ellipse cx="42" cy="98" rx="42" ry="14" fill="#050e1c" stroke="#1a4272" stroke-width="1.5"/>
  <text x="42" y="55" text-anchor="middle" font-size="11" font-weight="700" fill="#cce0f4">UF STORAGE</text>
</g>
<g transform="translate(708,478)" filter="url(#sh)">
  <rect x="0" y="8" width="76" height="42" fill="#16213e" stroke="#1c4270" stroke-width="1.5" rx="4"/>
  <ellipse cx="38" cy="8" rx="38" ry="9" fill="#1a4272" stroke="#1c4270" stroke-width="1.5"/>
  <text x="38" y="31" text-anchor="middle" font-size="12" font-weight="700" fill="#00d4ff">DRAIN</text>
</g>

<!-- PUMPS -->
<g id="p_6" transform="translate(22,386)" filter="url(#sh)">
  <rect x="0" y="4" width="62" height="32" fill="url(#pm)" stroke="#1c3c78" stroke-width="1.8" rx="5"/>
  <circle cx="72" cy="20" r="15" fill="#0e1c34" stroke="#1c3c78" stroke-width="1.8"/>
  <text x="31" y="-5" text-anchor="middle" font-size="13" font-weight="700" fill="#c0d8f0">PP1</text>
</g>
<g id="p_7" transform="translate(721,290)" filter="url(#sh)">
  <rect x="0" y="4" width="50" height="28" fill="url(#pm)" stroke="#1c3c78" stroke-width="1.8" rx="4"/>
  <circle cx="59" cy="18" r="12" fill="#0e1c34" stroke="#1c3c78" stroke-width="1.8"/>
  <text x="25" y="-5" text-anchor="middle" font-size="13" font-weight="700" fill="#c0d8f0">PP2</text>
</g>

<!-- VALVES (All styled like V2) -->
<!-- V1 -->
<g id="v_1" transform="translate(320,396)">
  <rect x="0" y="-4" width="28" height="21" fill="url(#vl)" stroke="#00d4ff" stroke-width="1.8" rx="2"/>
  <polygon points="0,-4 0,17 12,6" fill="#00d4ff" opacity=".7"/><polygon points="28,-4 28,17 16,6" fill="#00d4ff" opacity=".7"/>
  <text x="14" y="-10" text-anchor="middle" font-size="12" font-weight="700" fill="#bcd6f0">V1</text>
</g>
<!-- V2 -->
<g id="v_2" transform="translate(216,330)">
  <rect x="-4" y="0" width="21" height="28" fill="url(#vl)" stroke="#00d4ff" stroke-width="1.8" rx="2"/>
  <polygon points="-4,0 17,0 6,12" fill="#00d4ff" opacity=".7"/><polygon points="-4,28 17,28 6,16" fill="#00d4ff" opacity=".7"/>
  <text x="-16" y="18" text-anchor="middle" font-size="12" font-weight="700" fill="#bcd6f0">V2</text>
</g>
<!-- V3 -->
<g id="v_3" transform="translate(510,396)">
  <rect x="0" y="-4" width="28" height="21" fill="url(#vl)" stroke="#00d4ff" stroke-width="1.8" rx="2"/>
  <polygon points="0,-4 0,17 12,6" fill="#00d4ff" opacity=".7"/><polygon points="28,-4 28,17 16,6" fill="#00d4ff" opacity=".7"/>
  <text x="14" y="-10" text-anchor="middle" font-size="12" font-weight="700" fill="#bcd6f0">V3</text>
</g>
<!-- V4 -->
<g id="v_4" transform="translate(676,330)">
  <rect x="0" y="0" width="21" height="28" fill="url(#vl)" stroke="#00d4ff" stroke-width="1.8" rx="2"/>
  <polygon points="0,0 21,0 10,12" fill="#00d4ff" opacity=".7"/><polygon points="0,28 21,28 10,16" fill="#00d4ff" opacity=".7"/>
  <text x="32" y="18" text-anchor="start" font-size="12" font-weight="700" fill="#bcd6f0">V4</text>
</g>
<!-- V5 (Red Marked Spot) -->
<g id="v_5" transform="translate(802,132)">
  <rect x="0" y="0" width="34" height="24" fill="#182e60" stroke="#00d4ff" stroke-width="2" rx="3"/>
  <polygon points="0,0 0,24 14,12" fill="#00d4ff" opacity=".7"/><polygon points="34,0 34,24 20,12" fill="#00d4ff" opacity=".7"/>
  <text x="17" y="-7" text-anchor="middle" font-size="13" font-weight="700" fill="#bcd6f0">V5</text>
</g>

<line x1="28" y1="542" x2="872" y2="542" stroke="#101a2e" stroke-width="1"/>
<text x="450" y="555" text-anchor="middle" font-size="10" fill="#2c3e55">Process Flow Diagram · Raj Enterprices · v1.0</text>
</svg>
